{
  "asset": {
    "generator": "Khronos glTF Blender I/O v4.0.44",
    "version": "2.0"
  },
  "scene": 0,
  "scenes": [
    {
      "name": "blend_export",
      "nodes": [
        0
      ]
    }
  ],
  "nodes": [
    {
      "mesh": 0,
      "name": "plunger"
    }
  ],
  "materials": [
    {
      "doubleSided": true,
      "name": "plunger",
      "normalTexture": {
        "index": 0
      },
      "pbrMetallicRoughness": {
        "baseColorTexture": {
          "index": 1
        },
        "metallicFactor": 0,
        "metallicRoughnessTexture": {
          "index": 2
        }
      }
    }
  ],
  "meshes": [
    {
      "name": "Cylinder.004",
      "primitives": [
        {
          "attributes": {
            "POSITION": 0,
            "NORMAL": 1,
            "TEXCOORD_0": 2
          },
          "indices": 3,
          "material": 0
        }
      ]
    }
  ],
  "textures": [
    {
      "sampler": 0,
      "source": 0
    },
    {
      "sampler": 0,
      "source": 1
    },
    {
      "sampler": 0,
      "source": 2
    }
  ],
  "images": [
    {
      "mimeType": "image/jpeg",
      "name": "plunger_nor_gl",
      "uri": "textures/plunger_nor_gl_2k.webp"
    },
    {
      "mimeType": "image/jpeg",
      "name": "plunger_diff",
      "uri": "textures/plunger_diff_2k.webp"
    },
    {
      "mimeType": "image/jpeg",
      "name": "plunger_rough",
      "uri": "textures/plunger_arm_2k.webp"
    }
  ],
  "accessors": [
    {
      "bufferView": 0,
      "componentType": 5126,
      "count": 2096,
      "max": [
        0.08612577617168427,
        0.42108386754989624,
        0.08592827618122101
      ],
      "min": [
        -0.08592827618122101,
        -0.000031031668186187744,
        -0.08612576872110367
      ],
      "type": "VEC3"
    },
    {
      "bufferView": 1,
      "componentType": 5126,
      "count": 2096,
      "type": "VEC3"
    },
    {
      "bufferView": 2,
      "componentType": 5126,
      "count": 2096,
      "type": "VEC2"
    },
    {
      "bufferView": 3,
      "componentType": 5123,
      "count": 9834,
      "type": "SCALAR"
    }
  ],
  "bufferViews": [
    {
      "buffer": 0,
      "byteLength": 25152,
      "byteOffset": 0,
      "target": 34962
    },
    {
      "buffer": 0,
      "byteLength": 25152,
      "byteOffset": 25152,
      "target": 34962
    },
    {
      "buffer": 0,
      "byteLength": 16768,
      "byteOffset": 50304,
      "target": 34962
    },
    {
      "buffer": 0,
      "byteLength": 19668,
      "byteOffset": 67072,
      "target": 34963
    }
  ],
  "samplers": [
    {
      "magFilter": 9729,
      "minFilter": 9987
    }
  ],
  "buffers": [
    {
      "byteLength": 86740,
      "uri": "plunger.bin"
    }
  ]
}